<?xml version="1.0" standalone="no"?><!DOCTYPE svg PUBLIC "-//W3C//DTD SVG 1.1//EN" "http://www.w3.org/Graphics/SVG/1.1/DTD/svg11.dtd"><svg t="1719134616566" class="icon" viewBox="0 0 1024 1024" version="1.1" xmlns="http://www.w3.org/2000/svg" p-id="2785" xmlns:xlink="http://www.w3.org/1999/xlink" width="1024" height="1024"><path d="M213.333333 298.666667h725.333334v554.666666H213.333333z" fill="#90A4AE" p-id="2786"></path><path d="M256 341.333333h640v469.333334H256z" fill="#FFFFFF" p-id="2787"></path><path d="M298.666667 384h554.666666v256H298.666667z" fill="#4FC3F7" p-id="2788"></path><path d="M298.666667 628.266667h554.666666v-87.253334l-554.666666-17.28v104.533334z" fill="#B3E5FC" p-id="2789"></path><path d="M298.666667 682.666667h554.666666v85.333333H298.666667z" fill="#1976D2" p-id="2790"></path><path d="M723.84 541.013333a55.466667 52.266667 0 1 0 110.933333 0 55.466667 52.266667 0 1 0-110.933333 0Z" fill="#B3E5FC" p-id="2791"></path><path d="M650.026667 523.733333a55.466667 52.266667 0 1 0 110.933333 0 55.466667 52.266667 0 1 0-110.933333 0Z" fill="#B3E5FC" p-id="2792"></path><path d="M539.093333 523.733333a36.906667 34.986667 0 1 0 73.813334 0 36.906667 34.986667 0 1 0-73.813334 0Z" fill="#B3E5FC" p-id="2793"></path><path d="M594.56 523.733333a36.906667 34.986667 0 1 0 73.813333 0 36.906667 34.986667 0 1 0-73.813333 0Z" fill="#B3E5FC" p-id="2794"></path><path d="M298.666667 523.733333a36.906667 34.986667 0 1 0 73.813333 0 36.906667 34.986667 0 1 0-73.813333 0Z" fill="#B3E5FC" p-id="2795"></path><path d="M335.786667 506.24a36.906667 34.986667 0 1 0 73.813333 0 36.906667 34.986667 0 1 0-73.813333 0Z" fill="#B3E5FC" p-id="2796"></path><path d="M465.066667 506.24a55.466667 52.266667 0 1 0 110.933333 0 55.466667 52.266667 0 1 0-110.933333 0Z" fill="#B3E5FC" p-id="2797"></path><path d="M391.04 523.733333a55.466667 52.266667 0 1 0 110.933333 0 55.466667 52.266667 0 1 0-110.933333 0Z" fill="#B3E5FC" p-id="2798"></path><path d="M779.52 541.013333a36.906667 34.986667 0 1 0 73.813333 0 36.906667 34.986667 0 1 0-73.813333 0Z" fill="#B3E5FC" p-id="2799"></path><path d="M298.666667 682.666667h554.666666v-52.266667h-55.466666l-92.373334-34.986667-92.586666 34.986667-147.84-104.746667-166.4 104.746667V682.666667z" fill="#0D47A1" p-id="2800"></path><path d="M85.333333 170.666667h725.333334v554.666666H85.333333z" fill="#90A4AE" p-id="2801"></path><path d="M128 213.333333h640v469.333334H128z" fill="#FFFFFF" p-id="2802"></path><path d="M170.666667 256h554.666666v256H170.666667z" fill="#4FC3F7" p-id="2803"></path><path d="M170.666667 500.266667h554.666666v-87.253334l-554.666666-17.28v104.533334z" fill="#B3E5FC" p-id="2804"></path><path d="M170.666667 554.666667h554.666666v85.333333H170.666667z" fill="#1976D2" p-id="2805"></path><path d="M595.84 413.013333a55.466667 52.266667 0 1 0 110.933333 0 55.466667 52.266667 0 1 0-110.933333 0Z" fill="#B3E5FC" p-id="2806"></path><path d="M522.026667 395.733333a55.466667 52.266667 0 1 0 110.933333 0 55.466667 52.266667 0 1 0-110.933333 0Z" fill="#B3E5FC" p-id="2807"></path><path d="M411.093333 395.733333a36.906667 34.986667 0 1 0 73.813334 0 36.906667 34.986667 0 1 0-73.813334 0Z" fill="#B3E5FC" p-id="2808"></path><path d="M466.56 395.733333a36.906667 34.986667 0 1 0 73.813333 0 36.906667 34.986667 0 1 0-73.813333 0Z" fill="#B3E5FC" p-id="2809"></path><path d="M170.666667 395.733333a36.906667 34.986667 0 1 0 73.813333 0 36.906667 34.986667 0 1 0-73.813333 0Z" fill="#B3E5FC" p-id="2810"></path><path d="M207.786667 378.24a36.906667 34.986667 0 1 0 73.813333 0 36.906667 34.986667 0 1 0-73.813333 0Z" fill="#B3E5FC" p-id="2811"></path><path d="M337.066667 378.24a55.466667 52.266667 0 1 0 110.933333 0 55.466667 52.266667 0 1 0-110.933333 0Z" fill="#B3E5FC" p-id="2812"></path><path d="M263.04 395.733333a55.466667 52.266667 0 1 0 110.933333 0 55.466667 52.266667 0 1 0-110.933333 0Z" fill="#B3E5FC" p-id="2813"></path><path d="M651.52 413.013333a36.906667 34.986667 0 1 0 73.813333 0 36.906667 34.986667 0 1 0-73.813333 0Z" fill="#B3E5FC" p-id="2814"></path><path d="M170.666667 554.666667h554.666666v-52.266667h-55.466666l-92.373334-34.986667-92.586666 34.986667-147.84-104.746667L170.666667 502.4V554.666667z" fill="#0D47A1" p-id="2815"></path></svg>