<?xml version="1.0" standalone="no"?><!DOCTYPE svg PUBLIC "-//W3C//DTD SVG 1.1//EN" "http://www.w3.org/Graphics/SVG/1.1/DTD/svg11.dtd"><svg t="1719133930020" class="icon" viewBox="0 0 1024 1024" version="1.1" xmlns="http://www.w3.org/2000/svg" p-id="8455" xmlns:xlink="http://www.w3.org/1999/xlink" width="1024" height="1024"><path d="M106.666667 170.666667h810.666666v640H106.666667z" fill="#90A4AE" p-id="8456"></path><path d="M149.333333 213.333333h725.333334v554.666667H149.333333z" fill="#FFFFFF" p-id="8457"></path><path d="M192 256h640v298.666667H192z" fill="#4FC3F7" p-id="8458"></path><path d="M192 554.666667h640v-106.666667L192 426.666667v128z" fill="#B3E5FC" p-id="8459"></path><path d="M192 618.666667h640v106.666666H192z" fill="#1976D2" p-id="8460"></path><path d="M746.666667 448m-64 0a64 64 0 1 0 128 0 64 64 0 1 0-128 0Z" fill="#B3E5FC" p-id="8461"></path><path d="M661.333333 426.666667m-64 0a64 64 0 1 0 128 0 64 64 0 1 0-128 0Z" fill="#B3E5FC" p-id="8462"></path><path d="M512 426.666667m-42.666667 0a42.666667 42.666667 0 1 0 85.333334 0 42.666667 42.666667 0 1 0-85.333334 0Z" fill="#B3E5FC" p-id="8463"></path><path d="M576 426.666667m-42.666667 0a42.666667 42.666667 0 1 0 85.333334 0 42.666667 42.666667 0 1 0-85.333334 0Z" fill="#B3E5FC" p-id="8464"></path><path d="M234.666667 426.666667m-42.666667 0a42.666667 42.666667 0 1 0 85.333333 0 42.666667 42.666667 0 1 0-85.333333 0Z" fill="#B3E5FC" p-id="8465"></path><path d="M277.333333 405.333333m-42.666666 0a42.666667 42.666667 0 1 0 85.333333 0 42.666667 42.666667 0 1 0-85.333333 0Z" fill="#B3E5FC" p-id="8466"></path><path d="M448 405.333333m-64 0a64 64 0 1 0 128 0 64 64 0 1 0-128 0Z" fill="#B3E5FC" p-id="8467"></path><path d="M362.666667 426.666667m-64 0a64 64 0 1 0 128 0 64 64 0 1 0-128 0Z" fill="#B3E5FC" p-id="8468"></path><path d="M789.333333 448m-42.666666 0a42.666667 42.666667 0 1 0 85.333333 0 42.666667 42.666667 0 1 0-85.333333 0Z" fill="#B3E5FC" p-id="8469"></path><path d="M192 618.666667h640v-64h-64l-106.666667-42.666667-106.666666 42.666667-170.666667-128-192 128v64z" fill="#0D47A1" p-id="8470"></path><path d="M832 832m-192 0a192 192 0 1 0 384 0 192 192 0 1 0-384 0Z" fill="#F44336" p-id="8471"></path><path d="M895.957333 736.149333l32 32-160.064 160.042667-32-32z" fill="#FDFDFD" p-id="8472"></path><path d="M927.850667 895.957333l-32 32-160.042667-160.064 32-32z" fill="#FDFDFD" p-id="8473"></path></svg>