<?xml version="1.0" standalone="no"?><!DOCTYPE svg PUBLIC "-//W3C//DTD SVG 1.1//EN" "http://www.w3.org/Graphics/SVG/1.1/DTD/svg11.dtd"><svg t="1719033132536" class="icon" viewBox="0 0 1024 1024" version="1.1" xmlns="http://www.w3.org/2000/svg" p-id="12975" xmlns:xlink="http://www.w3.org/1999/xlink" width="1024" height="1024"><path d="M692 339.5a67.5 67.5 0 1 0 135 0 67.5 67.5 0 1 0-135 0z m277.41-198.18a30 30 0 0 0-20.58-10.23l-427.68-29.91a29.58 29.58 0 0 0-25.5 11.16l-86.43 107.67a30 30 0 0 0 0.63 38.34l137.01 159.33-138.24 182.49 34.2-162.54a30 30 0 0 0-10.44-29.46L252.89 262.16l74.64-117.84a30 30 0 0 0-27.45-45.96L74.9 114.08a30 30 0 0 0-27.84 32.04l52.32 748.14a30.06 30.06 0 0 0 32.16 27.84l165.48-12.36c16.53-1.23 28.92-15.63 27.66-32.13s-15.54-29.1-32.16-27.69L157.1 860.03l-6.03-86.73 117.48-11.79a30 30 0 0 0 26.88-32.85 30.15 30.15 0 0 0-32.85-26.88L146.9 713.42l-37.89-541.56 136.08-9.51-57.15 90.21a30 30 0 0 0 6.42 39.33l186 151.26-55.08 261.84a28.98 28.98 0 0 0 0.69 13.83 29.7 29.7 0 0 0 1.32 10.35l48.3 144.9a29.97 29.97 0 0 0 25.74 20.4l490.41 44.58a30.06 30.06 0 0 0 32.67-27.78L976.7 163.1a30.06 30.06 0 0 0-7.29-21.78z m-92.73 591.42l-386.79-37.17a29.55 29.55 0 0 0-32.73 26.97 30 30 0 0 0 27 32.73l388.35 37.32-5.88 83.94-440.37-40.05-37.11-111.3 220.14-290.64a29.94 29.94 0 0 0-1.17-37.68L471.59 238.1l61.02-75.99 382.11 26.7-38.04 543.93z" p-id="12976" fill="#2c2c2c"></path></svg>