<?xml version="1.0" standalone="no"?><!DOCTYPE svg PUBLIC "-//W3C//DTD SVG 1.1//EN" "http://www.w3.org/Graphics/SVG/1.1/DTD/svg11.dtd"><svg t="1719130223045" class="icon" viewBox="0 0 1024 1024" version="1.1" xmlns="http://www.w3.org/2000/svg" p-id="17790" xmlns:xlink="http://www.w3.org/1999/xlink" width="1024" height="1024"><path d="M512 512m-512 0a512 512 0 1 0 1024 0 512 512 0 1 0-1024 0Z" fill="#00b180" p-id="17791"></path><path d="M640 250.88H304.64a51.2 51.2 0 0 0-48.64 48.64v447.744a51.2 51.2 0 0 0 57.088 51.2h392.448a52.48 52.48 0 0 0 49.152-49.408V358.4l-51.2 67.072v323.584L307.2 748.032V300.544h297.472L640 250.88z m58.88 2.048l52.736 41.216 11.008-14.592a22.016 22.016 0 0 0 0-25.6 63.744 63.744 0 0 0-20.224-19.2 25.6 25.6 0 0 0-29.44 2.048l-13.824 16.128z" fill="#FFFFFF" p-id="17792"></path><path d="M736.256 315.648l-120.32 161.28a56.32 56.32 0 0 1-22.016 21.504l-39.68 18.944s-10.752 5.376-13.056-9.472l6.912-43.776a37.12 37.12 0 0 1 9.984-22.016l125.696-167.936 52.48 41.472z m-349.44 245.76h235.776s7.68-2.048 7.424 11.008v22.016s-1.792 6.144-10.752 4.608h-230.4a7.936 7.936 0 0 1-8.704-7.168v-25.6a6.912 6.912 0 0 1 6.4-5.376z m0-146.176h111.104s7.68-2.048 7.424 11.008V486.4s-1.792 6.144-10.752 4.608H389.12a7.936 7.936 0 0 1-8.704-7.168v-62.976a6.912 6.912 0 0 1 6.4-5.376z m0 233.728h235.776s7.68-2.048 7.424 11.008v22.016s-1.792 6.144-10.752 4.608h-230.4a7.936 7.936 0 0 1-8.704-7.168v-25.6a6.912 6.912 0 0 1 6.4-5.376z" fill="#FFFFFF" p-id="17793"></path></svg>