<?xml version="1.0" standalone="no"?><!DOCTYPE svg PUBLIC "-//W3C//DTD SVG 1.1//EN" "http://www.w3.org/Graphics/SVG/1.1/DTD/svg11.dtd"><svg t="1719146288153" class="icon" viewBox="0 0 1024 1024" version="1.1" xmlns="http://www.w3.org/2000/svg" p-id="2955" xmlns:xlink="http://www.w3.org/1999/xlink" width="1024" height="1024"><path d="M106.666667 192h810.666666v640H106.666667z" fill="#90A4AE" p-id="2956"></path><path d="M149.333333 234.666667h725.333334v554.666666H149.333333z" fill="#FFFFFF" p-id="2957"></path><path d="M192 277.333333h640v298.666667H192z" fill="#4FC3F7" p-id="2958"></path><path d="M192 576h640v-106.666667L192 448v128z" fill="#B3E5FC" p-id="2959"></path><path d="M192 640h640v106.666667H192z" fill="#1976D2" p-id="2960"></path><path d="M746.666667 469.333333m-64 0a64 64 0 1 0 128 0 64 64 0 1 0-128 0Z" fill="#B3E5FC" p-id="2961"></path><path d="M661.333333 448m-64 0a64 64 0 1 0 128 0 64 64 0 1 0-128 0Z" fill="#B3E5FC" p-id="2962"></path><path d="M512 448m-42.666667 0a42.666667 42.666667 0 1 0 85.333334 0 42.666667 42.666667 0 1 0-85.333334 0Z" fill="#B3E5FC" p-id="2963"></path><path d="M576 448m-42.666667 0a42.666667 42.666667 0 1 0 85.333334 0 42.666667 42.666667 0 1 0-85.333334 0Z" fill="#B3E5FC" p-id="2964"></path><path d="M234.666667 448m-42.666667 0a42.666667 42.666667 0 1 0 85.333333 0 42.666667 42.666667 0 1 0-85.333333 0Z" fill="#B3E5FC" p-id="2965"></path><path d="M277.333333 426.666667m-42.666666 0a42.666667 42.666667 0 1 0 85.333333 0 42.666667 42.666667 0 1 0-85.333333 0Z" fill="#B3E5FC" p-id="2966"></path><path d="M448 426.666667m-64 0a64 64 0 1 0 128 0 64 64 0 1 0-128 0Z" fill="#B3E5FC" p-id="2967"></path><path d="M362.666667 448m-64 0a64 64 0 1 0 128 0 64 64 0 1 0-128 0Z" fill="#B3E5FC" p-id="2968"></path><path d="M789.333333 469.333333m-42.666666 0a42.666667 42.666667 0 1 0 85.333333 0 42.666667 42.666667 0 1 0-85.333333 0Z" fill="#B3E5FC" p-id="2969"></path><path d="M192 640h640v-64h-64l-106.666667-42.666667-106.666666 42.666667-170.666667-128-192 128v64z" fill="#0D47A1" p-id="2970"></path></svg>