<?xml version="1.0" standalone="no"?><!DOCTYPE svg PUBLIC "-//W3C//DTD SVG 1.1//EN" "http://www.w3.org/Graphics/SVG/1.1/DTD/svg11.dtd"><svg t="1721550491032" class="icon" viewBox="0 0 1024 1024" version="1.1" xmlns="http://www.w3.org/2000/svg" p-id="9460" xmlns:xlink="http://www.w3.org/1999/xlink" width="1024" height="1024"><path d="M893.805714 455.363048l-125.805714 13.970285-128 128-15.993905 207.969524c-2.096762 27.257905-35.206095 39.497143-54.54019 20.163048l-164.717715-164.717715-213.333333 213.333334-41.496381-41.496381 213.333334-213.333333-186.051048-186.051048c-19.334095-19.334095-7.070476-52.419048 20.163048-54.540191l207.969523-15.993904 128-128 28.964572-115.833905a32.01219 32.01219 0 0 1 53.662476-14.872381l296.96 296.96c18.968381 18.968381 7.558095 51.46819-19.090286 54.442667z m-152.746666-42.057143l91.136-10.142476-224.402286-224.402286-21.479619 85.894095-154.819048 154.819048-171.812571 13.238857 310.272 310.272 13.214476-171.788191 157.891048-157.891047z" p-id="9461" fill="#636363"></path></svg>