<?xml version="1.0" standalone="no"?><!DOCTYPE svg PUBLIC "-//W3C//DTD SVG 1.1//EN" "http://www.w3.org/Graphics/SVG/1.1/DTD/svg11.dtd"><svg t="1719315357210" class="icon" viewBox="0 0 1024 1024" version="1.1" xmlns="http://www.w3.org/2000/svg" p-id="3074" xmlns:xlink="http://www.w3.org/1999/xlink" width="1024" height="1024"><path d="M672 64C513.28 64 384 193.28 384 352a284.8 284.8 0 0 0 64 178.752L129.472 849.28l45.056 45.44L493.248 576c49.28 39.488 110.976 64 178.752 64 158.72 0 288-129.28 288-288S830.72 64 672 64z m0 64C796.032 128 896 228.032 896 352 896 476.032 795.968 576 672 576A223.616 223.616 0 0 1 448 352C448 227.968 548.032 128 672 128z" fill="#636363" p-id="3075"></path></svg>