<?xml version="1.0" standalone="no"?><!DOCTYPE svg PUBLIC "-//W3C//DTD SVG 1.1//EN" "http://www.w3.org/Graphics/SVG/1.1/DTD/svg11.dtd"><svg t="1721553447860" class="icon" viewBox="0 0 1024 1024" version="1.1" xmlns="http://www.w3.org/2000/svg" p-id="25746" xmlns:xlink="http://www.w3.org/1999/xlink" width="1024" height="1024"><path d="M512 512m-455.111111 0a455.111111 455.111111 0 1 0 910.222222 0 455.111111 455.111111 0 1 0-910.222222 0Z" fill="#3389EF" p-id="25747"></path><path d="M515.003733 760.695467a21.777067 21.777067 0 0 1-21.822577-21.8112V309.248c0-12.0832 9.739378-21.822578 21.822577-21.822578 12.0832 0 21.8112 9.739378 21.8112 21.822578v429.283556c0 12.0832-9.728 22.152533-21.8112 22.152533z" fill="#FFFFFF" p-id="25748"></path><path d="M698.595556 511.647289c-5.700267 0-11.070578-2.013867-15.428267-6.371556l-168.163556-168.163555-168.163555 168.163555a22.084267 22.084267 0 0 1-30.879289 0 22.084267 22.084267 0 0 1 0-30.879289l183.6032-183.6032c4.027733-4.027733 9.739378-6.371556 15.439644-6.371555s11.411911 2.343822 15.439645 6.371555l183.591822 183.6032a22.084267 22.084267 0 0 1 0 30.879289c-4.357689 4.357689-10.069333 6.371556-15.439644 6.371556z" fill="#FFFFFF" p-id="25749"></path></svg>