<?xml version="1.0" standalone="no"?><!DOCTYPE svg PUBLIC "-//W3C//DTD SVG 1.1//EN" "http://www.w3.org/Graphics/SVG/1.1/DTD/svg11.dtd"><svg t="1718610360640" class="icon" viewBox="0 0 1024 1024" version="1.1" xmlns="http://www.w3.org/2000/svg" p-id="4492" xmlns:xlink="http://www.w3.org/1999/xlink" width="1024" height="1024"><path d="M994.037598 121.073984A102.372564 102.372564 0 0 0 902.926016 29.962402L582.49989 0.274358a102.372564 102.372564 0 0 0-79.8506 29.688044L29.176181 502.923648a102.372564 102.372564 0 0 0 0 142.297865l349.602306 349.090443a102.372564 102.372564 0 0 0 142.297865 0l472.961246-472.961246A102.372564 102.372564 0 0 0 1023.725642 441.50011zM450.439282 921.627436L102.372564 575.096306 573.286359 102.646923l318.890538 27.640592 29.17618 318.890537z" fill="#000000" p-id="4493"></path><path d="M729.513102 293.826621m-72.388334 72.388334a102.372564 102.372564 0 1 0 144.776668-144.776669 102.372564 102.372564 0 1 0-144.776668 144.776669Z" fill="#000000" p-id="4494"></path></svg>