<?xml version="1.0" standalone="no"?><!DOCTYPE svg PUBLIC "-//W3C//DTD SVG 1.1//EN" "http://www.w3.org/Graphics/SVG/1.1/DTD/svg11.dtd"><svg t="1728884272705" class="icon" viewBox="0 0 1024 1024" version="1.1" xmlns="http://www.w3.org/2000/svg" p-id="2055" xmlns:xlink="http://www.w3.org/1999/xlink" width="256" height="256"><path d="M896 128H128c-17.7 0-32 14.3-32 32s14.3 32 32 32h768c17.7 0 32-14.3 32-32s-14.3-32-32-32zM896 480H128c-17.7 0-32 14.3-32 32s14.3 32 32 32h768c17.7 0 32-14.3 32-32s-14.3-32-32-32zM896 832H128c-17.7 0-32 14.3-32 32s14.3 32 32 32h768c17.7 0 32-14.3 32-32s-14.3-32-32-32z" fill="#000000" p-id="2056"></path></svg>